Coordinates
version=1
nRows=9
nColumns=24
inDegrees=yes

Units are S.I. units (second, meters, Newtons, ...)
Angles are in degrees.

endheader
time	pelvis_tilt	pelvis_list	pelvis_rotation	pelvis_tx	pelvis_ty	pelvis_tz	hip_flexion_r	hip_adduction_r	hip_rotation_r	knee_angle_r	ankle_angle_r	subtalar_angle_r	mtp_angle_r	hip_flexion_l	hip_adduction_l	hip_rotation_l	knee_angle_l	ankle_angle_l	subtalar_angle_l	mtp_angle_l	lumbar_extension	lumbar_bending	lumbar_rotation
      0.58100000	     -3.69505677	      4.07162516	      8.80599873	     -0.80842631	      0.86791806	      0.31005255	     34.73387690	     -6.39844191	     -6.25270247	     -8.21813297	      9.98656042	      1.90776150	      5.15384938	    -19.51298693	      3.00869411	      6.34559976	     -5.97776697	     15.24087659	      2.81088606	     11.12964233	     -2.99719667	     -7.26329116	     -9.09757749
      0.58516667	     -3.72208998	      4.01914239	      8.88908404	     -0.80241747	      0.86672006	      0.31041286	     34.94994210	     -6.32761561	     -6.07657768	     -8.99051714	      9.93968750	      1.59203331	      5.13081060	    -19.67381060	      2.85377072	      6.43376030	     -6.41194009	     15.20031789	      2.71684042	     11.17702162	     -2.94219708	     -7.12986453	     -9.00153819
      0.58933333	     -3.77787208	      3.94630493	      8.96988828	     -0.79636087	      0.86551268	      0.31081057	     35.17748099	     -6.23080179	     -5.90705810	     -9.76153159	      9.71071029	      1.16443574	      5.09697356	    -19.75314515	      2.67691746	      6.39787626	     -6.94796764	     15.18926408	      2.83773997	     11.30065927	     -2.84342746	     -6.98988835	     -8.94524989
      0.59350000	     -3.79365826	      3.85519010	      9.03435539	     -0.79023963	      0.86437648	      0.31126070	     35.34812487	     -6.09514567	     -5.74259579	    -10.54681390	      9.51581945	      0.73942575	      5.08396119	    -19.87648841	      2.47562423	      6.32807504	     -7.47791477	     15.17440872	      2.94846137	     11.41661549	     -2.79702041	     -6.80542730	     -8.91841645
      0.59766667	     -3.83225812	      3.74744263	      9.09520994	     -0.78406805	      0.86324629	      0.31174667	     35.52434915	     -5.93795436	     -5.59512569	    -11.32114908	      9.14855093	      0.25011330	      5.07972529	    -19.94775218	      2.25845959	      6.21825733	     -8.06720847	     15.12844874	      3.12723336	     11.58357123	     -2.70239584	     -6.61328094	     -8.86784190
      0.60183333	     -3.85630251	      3.62993341	      9.14410502	     -0.77785183	      0.86217295	      0.31227259	     35.67401071	     -5.75875163	     -5.46660498	    -12.10180266	      8.73073210	     -0.23337144	      5.08969172	    -20.02208652	      2.03073803	      6.07684633	     -8.67439671	     15.05444479	      3.29505258	     11.78411091	     -2.61941593	     -6.40245925	     -8.81378861
      0.60600000	     -3.81080563	      3.44974529	      9.16508014	     -0.77151934	      0.86122578	      0.31287955	     35.71857722	     -5.49102757	     -5.39517549	    -12.83843293	      8.20887395	     -0.69635189	      5.22670908	    -20.14298177	      1.71665178	      5.74708171	     -9.32940819	     15.01800136	      3.74457298	     12.73775845	     -2.59468794	     -6.10037448	     -8.73726355
      0.61016667	     -3.89000661	      3.34702208	      9.20536694	     -0.76525196	      0.86014151	      0.31345100	     35.93303203	     -5.32517172	     -5.29588579	    -13.67937871	      7.71842909	     -1.15555449	      5.24893091	    -20.15529019	      1.52752177	      5.75125578	     -9.95386611	     14.81390184	      3.63461563	     12.90172597	     -2.43722387	     -5.91961807	     -8.68096709
      0.61433333	     -3.93573273	      3.19427676	      9.21201263	     -0.75890706	      0.85914116	      0.31412303	     36.08776005	     -5.07934658	     -5.19372342	    -14.47386511	      7.09870645	     -1.65033850	      5.29066025	    -20.19105696	      1.27875632	      5.63253521	    -10.58786126	     14.59976732	      3.68804798	     13.12925013	     -2.32377869	     -5.67978030	     -8.58418549
